<?xml version="1.0" encoding="UTF-8" standalone="no"?>
<!DOCTYPE svg PUBLIC "-//W3C//DTD SVG 20010904//EN"
              "http://www.w3.org/TR/2001/REC-SVG-20010904/DTD/svg10.dtd">

<svg xmlns="http://www.w3.org/2000/svg"
     width="19.0972in" height="10.7639in"
     viewBox="0 0 1375 775">
  <path id="Sélection"
        fill="none" stroke="black" stroke-width="1"
        d="M 1010.50,42.22
           C 1010.50,42.22 1058.50,48.35 1058.50,48.35
             1063.27,48.92 1080.07,50.55 1083.28,52.64
             1085.11,53.82 1085.44,54.76 1086.50,56.50
             1086.50,56.50 1077.50,59.50 1077.50,59.50
             1077.50,59.50 1109.08,134.50 1109.08,134.50
             1109.08,134.50 1116.69,152.50 1116.69,152.50
             1117.73,154.98 1118.91,158.85 1121.71,159.81
             1123.84,160.54 1127.36,159.23 1129.50,158.65
             1129.50,158.65 1145.50,154.49 1145.50,154.49
             1145.50,154.49 1212.50,137.50 1212.50,137.50
             1210.65,119.76 1232.44,130.06 1241.50,129.31
             1249.38,128.66 1258.81,124.04 1266.50,124.69
             1274.55,125.36 1279.83,129.76 1286.50,133.50
             1286.50,133.50 1286.50,134.50 1286.50,134.50
             1286.50,134.50 1287.50,137.50 1287.50,137.50
             1286.28,140.93 1284.67,145.58 1281.32,147.64
             1278.08,149.31 1274.36,147.70 1271.50,147.64
             1268.26,147.91 1266.12,149.46 1263.50,151.17
             1263.50,151.17 1200.50,194.50 1200.50,194.50
             1214.51,196.53 1208.33,205.93 1206.03,207.49
             1203.04,209.49 1194.83,208.45 1191.50,207.49
             1191.50,207.49 1191.50,212.50 1191.50,212.50
             1191.50,212.50 1188.50,213.50 1188.50,213.50
             1191.07,214.67 1193.71,215.49 1195.53,217.77
             1201.16,224.82 1198.31,242.05 1191.40,246.90
             1187.92,249.34 1177.97,248.50 1173.50,248.50
             1173.50,248.50 1173.50,250.50 1173.50,250.50
             1173.50,250.50 1186.50,252.50 1186.50,252.50
             1186.50,252.50 1181.46,257.17 1181.46,257.17
             1181.46,257.17 1171.50,256.45 1171.50,256.45
             1171.50,256.45 1148.50,253.50 1148.50,253.50
             1148.50,253.50 1153.89,287.50 1153.89,287.50
             1153.89,287.50 1162.93,339.50 1162.93,339.50
             1162.93,339.50 1167.50,365.50 1167.50,365.50
             1174.15,366.20 1179.33,368.36 1180.50,375.50
             1157.99,375.50 1126.51,370.65 1103.50,367.78
             1092.93,366.47 1075.80,365.45 1066.50,361.50
             1066.50,361.50 1066.50,359.50 1066.50,359.50
             1077.15,354.47 1091.27,356.45 1102.50,358.50
             1102.50,358.50 1074.50,336.24 1074.50,336.24
             1074.50,336.24 966.50,246.50 966.50,246.50
             958.63,242.95 947.98,231.75 942.08,228.73
             937.90,226.59 935.93,228.50 927.50,225.75
             927.50,225.75 919.50,222.80 919.50,222.80
             919.50,222.80 902.50,218.77 902.50,218.77
             895.91,217.03 889.37,214.59 882.50,214.50
             882.50,214.50 871.50,214.50 871.50,214.50
             864.21,214.41 854.78,214.02 855.50,204.50
             844.93,202.58 844.59,197.21 844.50,187.50
             844.50,187.50 838.45,185.68 838.38,185.56
             837.71,184.57 840.50,181.50 840.50,181.50
             840.50,181.50 809.50,174.50 809.50,174.50
             809.50,174.50 792.41,170.96 792.41,170.96
             792.41,170.96 782.50,168.16 782.50,168.16
             782.50,168.16 744.50,159.50 744.50,159.50
             744.50,159.50 735.19,159.40 732.50,158.25
             732.50,158.25 718.50,154.36 718.50,154.36
             718.50,154.36 671.50,138.92 671.50,138.92
             665.42,136.65 655.17,133.63 650.50,129.50
             650.50,129.50 679.50,124.92 679.50,124.92
             679.50,124.92 706.50,121.67 706.50,121.67
             706.50,121.67 726.50,120.32 726.50,120.32
             726.50,120.32 733.50,118.93 733.50,118.93
             735.59,118.61 736.54,118.89 738.50,118.93
             738.50,118.93 755.50,117.50 755.50,117.50
             776.12,117.26 796.06,110.16 816.50,107.79
             816.50,107.79 841.50,108.74 841.50,108.74
             857.62,106.58 869.45,88.79 883.50,82.53
             889.03,80.12 901.45,81.42 907.50,82.53
             907.50,82.53 907.50,104.50 907.50,104.50
             907.50,104.50 906.48,111.01 906.48,111.01
             906.48,111.01 896.50,119.50 896.50,119.50
             896.50,119.50 910.92,121.29 910.92,121.29
             910.92,121.29 925.50,111.59 925.50,111.59
             925.50,111.59 941.50,100.50 941.50,100.50
             941.50,100.50 1014.50,50.50 1014.50,50.50
             1001.92,50.50 982.37,49.35 973.50,39.50
             985.12,38.00 998.85,40.65 1010.50,42.22 Z" />
</svg>
