<?xml version="1.0" encoding="UTF-8" standalone="no"?>
<!DOCTYPE svg PUBLIC "-//W3C//DTD SVG 20010904//EN"
              "http://www.w3.org/TR/2001/REC-SVG-20010904/DTD/svg10.dtd">

<svg xmlns="http://www.w3.org/2000/svg"
     width="19.0972in" height="10.7639in"
     viewBox="0 0 1375 775">
  <path id="Sélection #2"
        fill="none" stroke="black" stroke-width="1"
        d="M 827.14,249.00
           C 827.14,249.00 827.14,272.00 827.14,272.00
             827.14,272.00 828.92,281.00 828.92,281.00
             828.92,281.00 828.92,292.00 828.92,292.00
             843.22,290.85 842.24,290.81 846.00,283.00
             847.72,287.25 850.98,290.55 850.90,295.00
             850.83,298.78 849.17,300.47 848.63,303.00
             847.91,306.40 849.52,314.05 851.85,316.44
             855.88,321.24 861.90,317.03 867.00,316.44
             869.33,315.83 872.43,316.17 873.69,313.69
             874.97,311.18 873.43,299.23 873.00,296.00
             878.89,298.42 875.41,306.47 879.00,318.00
             879.00,318.00 865.00,320.00 865.00,320.00
             865.00,320.00 865.00,323.00 865.00,323.00
             869.96,322.99 880.99,322.44 883.83,317.78
             884.90,316.00 884.88,313.99 885.00,312.00
             885.00,312.00 887.00,312.00 887.00,312.00
             887.00,312.00 890.00,324.00 890.00,324.00
             883.07,324.00 872.55,324.33 867.37,329.79
             864.43,332.88 867.87,338.95 871.21,340.40
             873.13,341.23 878.68,341.00 881.00,341.00
             881.00,341.00 881.00,347.00 881.00,347.00
             877.45,347.00 869.12,346.01 867.77,350.23
             867.27,351.79 868.80,358.58 869.00,361.00
             871.45,359.04 872.55,357.30 874.00,361.00
             874.00,361.00 878.00,354.00 878.00,354.00
             878.00,354.00 889.88,354.00 889.88,354.00
             889.88,354.00 889.88,365.83 889.88,365.83
             889.88,365.83 888.17,371.09 888.17,371.09
             888.02,374.15 889.53,377.19 888.17,379.28
             886.29,381.58 876.02,383.57 873.00,384.00
             873.00,384.00 876.00,399.00 876.00,399.00
             886.44,400.69 884.19,407.36 885.31,411.99
             886.14,415.42 888.11,416.41 889.05,419.17
             890.14,422.36 889.13,428.94 896.00,433.00
             896.00,433.00 896.00,415.00 896.00,415.00
             901.96,416.00 902.47,418.38 903.00,424.00
             903.00,424.00 907.00,424.00 907.00,424.00
             906.45,426.87 906.71,426.87 904.00,428.00
             905.81,433.59 909.82,438.88 914.00,443.00
             914.00,443.00 914.63,415.00 914.63,415.00
             914.63,415.00 916.00,404.00 916.00,404.00
             916.00,404.00 916.00,445.00 916.00,445.00
             916.00,445.00 918.00,445.00 918.00,445.00
             918.00,445.00 919.00,427.00 919.00,427.00
             919.00,427.00 920.00,413.00 920.00,413.00
             920.00,426.88 918.49,441.52 922.00,455.00
             922.00,455.00 926.00,454.00 926.00,454.00
             926.00,454.00 931.21,460.92 931.21,460.92
             931.21,460.92 937.69,465.25 937.69,465.25
             937.69,465.25 939.00,479.00 939.00,479.00
             939.00,479.00 949.00,476.00 949.00,476.00
             949.00,476.00 949.00,481.00 949.00,481.00
             949.00,481.00 952.00,478.00 952.00,478.00
             952.00,478.00 960.00,479.00 960.00,479.00
             960.00,479.00 960.00,487.00 960.00,487.00
             960.00,487.00 963.00,487.00 963.00,487.00
             963.00,487.00 963.00,480.00 963.00,480.00
             963.00,480.00 966.00,480.00 966.00,480.00
             966.00,480.00 967.00,490.00 967.00,490.00
             972.35,488.70 981.36,488.74 982.36,496.02
             982.36,496.02 981.00,505.00 981.00,505.00
             981.00,505.00 999.00,501.00 999.00,501.00
             996.78,507.89 991.63,506.83 991.74,511.09
             991.83,514.43 995.43,516.20 998.00,517.41
             998.00,517.41 1009.00,522.87 1009.00,522.87
             1009.00,522.87 1019.00,529.00 1019.00,529.00
             1019.00,524.42 1018.20,520.80 1021.00,517.00
             1022.14,520.88 1022.61,528.08 1024.17,530.96
             1026.31,534.90 1042.49,544.96 1047.00,545.43
             1050.34,545.77 1054.00,543.34 1061.00,543.00
             1059.35,548.03 1056.41,548.48 1052.00,551.00
             1052.00,551.00 1081.00,570.86 1081.00,570.86
             1095.79,581.30 1111.35,591.30 1128.00,598.43
             1128.00,598.43 1142.00,604.89 1142.00,604.89
             1144.27,605.38 1154.66,602.66 1155.98,600.69
             1157.18,598.89 1157.03,595.14 1156.99,593.00
             1156.99,593.00 1156.09,584.00 1156.09,584.00
             1156.09,584.00 1154.91,562.00 1154.91,562.00
             1154.91,562.00 1154.00,550.00 1154.00,550.00
             1153.98,538.19 1152.51,542.91 1152.00,535.00
             1152.00,535.00 1158.00,535.00 1158.00,535.00
             1158.00,558.82 1158.88,582.37 1162.00,606.00
             1162.00,606.00 1172.00,606.91 1172.00,606.91
             1177.63,607.30 1183.86,606.01 1188.85,609.36
             1193.96,612.80 1190.46,616.82 1193.60,620.59
             1195.31,622.64 1199.53,623.93 1202.00,625.36
             1206.97,628.25 1207.87,630.71 1214.00,634.00
             1214.00,634.00 1216.00,627.00 1216.00,627.00
             1218.69,627.48 1223.50,627.89 1225.51,629.60
             1225.51,629.60 1229.41,634.41 1229.41,634.41
             1232.84,637.24 1239.82,636.02 1242.01,638.74
             1243.31,640.36 1243.01,644.91 1243.00,647.00
             1242.96,655.85 1240.17,658.64 1235.58,666.00
             1229.76,675.32 1218.38,689.07 1214.18,699.00
             1211.91,705.02 1213.17,712.73 1214.18,719.00
             1214.18,719.00 1183.00,706.42 1183.00,706.42
             1183.00,706.42 1142.00,689.42 1142.00,689.42
             1142.00,689.42 1097.00,672.58 1097.00,672.58
             1097.00,672.58 1054.00,656.34 1054.00,656.34
             1054.00,656.34 956.00,623.33 956.00,623.33
             956.00,623.33 910.00,607.95 910.00,607.95
             910.00,607.95 857.00,585.85 857.00,585.85
             825.74,572.43 795.22,558.54 766.00,541.00
             766.00,541.00 698.00,499.42 698.00,499.42
             681.31,489.03 663.38,478.28 651.78,462.00
             646.13,454.07 635.64,435.33 633.53,426.00
             632.18,420.03 633.93,414.94 632.00,407.00
             632.00,407.00 650.00,406.00 650.00,406.00
             648.50,401.61 648.50,401.11 652.00,398.00
             652.00,398.00 653.00,401.00 653.00,401.00
             653.00,401.00 655.00,401.00 655.00,401.00
             655.00,401.00 655.00,398.00 655.00,398.00
             655.00,398.00 658.00,401.00 658.00,401.00
             658.00,401.00 660.00,401.00 660.00,401.00
             663.72,395.42 666.86,401.06 674.00,402.13
             674.00,402.13 689.00,401.00 689.00,401.00
             691.69,392.57 696.06,397.87 701.00,399.54
             702.86,400.00 704.12,399.88 706.00,399.54
             708.55,399.49 709.23,399.12 712.00,399.54
             712.00,399.54 739.00,405.92 739.00,405.92
             741.79,406.67 747.75,409.51 750.00,409.19
             750.00,409.19 760.00,404.00 760.00,404.00
             760.00,404.00 760.00,402.00 760.00,402.00
             755.65,400.10 752.68,397.49 751.00,393.00
             751.00,393.00 759.70,389.41 759.70,389.41
             762.71,386.92 761.88,383.38 767.04,380.88
             773.83,377.59 778.42,384.38 780.00,375.00
             780.00,375.00 776.00,374.00 776.00,374.00
             776.00,374.00 781.91,372.32 781.91,372.32
             781.91,372.32 794.53,364.37 794.53,364.37
             795.60,363.25 795.92,362.46 796.15,360.96
             796.93,355.70 793.90,349.61 797.00,345.00
             797.00,348.72 797.18,361.89 799.60,364.26
             800.89,365.53 802.36,365.64 804.00,366.00
             804.00,366.00 804.00,369.00 804.00,369.00
             807.59,368.92 820.16,367.20 822.23,364.49
             824.30,361.80 822.52,355.01 821.69,352.00
             821.03,349.57 820.59,346.16 819.57,344.00
             817.94,340.56 811.99,335.23 808.00,335.25
             806.24,335.26 804.54,336.28 803.00,337.00
             806.45,324.65 796.78,331.99 787.00,330.00
             787.00,330.00 787.00,328.00 787.00,328.00
             787.00,328.00 791.00,318.00 791.00,318.00
             791.00,318.00 792.00,328.00 792.00,328.00
             792.00,328.00 796.00,328.00 796.00,328.00
             796.00,328.00 797.00,324.00 797.00,324.00
             799.17,326.70 800.69,325.78 804.00,326.00
             804.00,326.00 805.00,323.00 805.00,323.00
             805.00,323.00 810.00,323.00 810.00,323.00
             815.92,324.21 814.17,319.77 814.01,315.00
             813.78,308.11 811.55,295.18 814.01,289.00
             814.01,289.00 815.00,296.00 815.00,296.00
             815.00,296.00 823.96,290.73 823.96,290.73
             823.96,290.73 823.23,278.00 823.23,278.00
             823.23,278.00 823.23,272.00 823.23,272.00
             823.23,272.00 820.00,249.00 820.00,249.00
             820.00,249.00 827.14,249.00 827.14,249.00 Z
           M 816.00,301.00
           C 816.00,301.00 817.00,302.00 817.00,302.00
             817.00,302.00 817.00,301.00 817.00,301.00
             817.00,301.00 816.00,301.00 816.00,301.00 Z
           M 844.00,302.00
           C 842.57,308.37 840.78,311.68 844.00,318.00
             847.34,311.61 846.01,309.00 846.00,302.00
             846.00,302.00 844.00,302.00 844.00,302.00 Z
           M 820.00,315.00
           C 822.78,310.06 820.77,308.38 818.00,304.00
             816.21,308.52 817.01,311.33 820.00,315.00 Z
           M 827.00,321.00
           C 827.00,321.00 826.00,307.00 826.00,307.00
             824.14,311.33 821.41,318.81 827.00,321.00 Z
           M 831.00,312.00
           C 833.61,310.05 833.16,309.93 832.00,307.00
             832.00,307.00 831.00,312.00 831.00,312.00 Z
           M 808.00,329.00
           C 810.44,332.23 813.10,331.07 817.00,331.00
             813.57,327.83 812.40,328.70 808.00,329.00 Z
           M 835.00,332.00
           C 836.91,335.38 837.43,335.55 841.00,337.00
             839.69,333.16 838.84,332.98 835.00,332.00 Z
           M 814.00,334.00
           C 814.00,334.00 818.00,337.00 818.00,337.00
             818.00,337.00 814.00,334.00 814.00,334.00 Z
           M 831.00,340.00
           C 831.00,340.00 836.00,338.00 836.00,338.00
             836.00,338.00 834.00,335.00 834.00,335.00
             834.00,335.00 831.00,340.00 831.00,340.00 Z
           M 827.00,347.00
           C 827.00,347.00 828.00,352.00 828.00,352.00
             828.00,352.00 829.00,347.00 829.00,347.00
             829.00,347.00 827.00,347.00 827.00,347.00 Z
           M 836.00,350.00
           C 836.00,350.00 844.00,355.00 844.00,355.00
             844.00,355.00 844.00,349.00 844.00,349.00
             844.00,349.00 836.00,350.00 836.00,350.00 Z
           M 829.00,358.00
           C 829.00,358.00 839.00,357.00 839.00,357.00
             835.45,349.79 831.44,350.94 829.00,358.00 Z
           M 814.17,371.57
           C 814.17,371.57 812.77,381.00 812.77,381.00
             812.77,381.00 812.77,391.00 812.77,391.00
             812.77,391.00 812.04,398.00 812.04,398.00
             812.04,398.00 812.04,408.00 812.04,408.00
             816.58,406.19 816.77,406.64 821.00,409.00
             821.00,409.00 821.00,385.00 821.00,385.00
             821.00,385.00 822.00,369.00 822.00,369.00
             822.00,369.00 814.17,371.57 814.17,371.57 Z
           M 809.00,379.00
           C 809.00,379.00 809.00,371.00 809.00,371.00
             805.45,373.68 805.22,376.37 809.00,379.00 Z" />
</svg>
