<?xml version="1.0" encoding="UTF-8" standalone="no"?>
<!DOCTYPE svg PUBLIC "-//W3C//DTD SVG 20010904//EN"
              "http://www.w3.org/TR/2001/REC-SVG-20010904/DTD/svg10.dtd">

<svg xmlns="http://www.w3.org/2000/svg"
     width="19.0972in" height="10.7639in"
     viewBox="0 0 1375 775">
  <path id="Sans nom #4"
        fill="none" stroke="black" stroke-width="1"
        d="M 699.00,585.00
           C 698.00,585.00 738.75,557.50 737.75,556.50
             736.75,555.50 745.25,552.50 745.25,552.50
             745.25,552.50 799.00,554.50 799.00,554.50
             799.00,554.50 880.00,558.00 880.25,557.75
             880.50,557.50 894.75,556.00 894.50,556.00
             894.25,556.00 904.00,554.75 904.00,554.75
             904.00,554.75 995.25,497.50 995.25,497.25
             995.25,497.00 995.50,492.50 995.50,492.25
             995.50,492.00 1000.50,490.50 1000.75,490.50
             1001.00,490.50 1009.25,481.00 1009.25,481.00
             1009.25,481.00 1008.00,478.00 1007.75,477.75
             1007.50,477.50 1010.50,476.00 1010.50,475.75
             1010.50,475.50 1014.75,474.50 1014.75,474.50
             1014.75,474.50 1017.00,462.75 1017.00,462.75
             1017.00,462.75 1012.50,460.25 1012.50,460.25
             1012.50,460.25 1012.00,454.75 1012.00,454.75
             1012.00,454.75 1016.75,452.50 1016.75,452.50
             1016.75,452.50 1060.75,451.00 1060.75,451.00
             1060.75,451.00 1068.00,446.75 1068.00,446.75
             1068.00,446.75 1068.25,412.75 1068.25,412.75
             1068.25,412.75 1041.50,399.50 1041.75,399.50
             1042.00,399.50 1041.50,387.00 1041.50,387.00
             1041.50,387.00 1011.50,386.25 1011.50,386.25
             1011.50,386.25 996.25,382.75 996.25,382.50
             996.25,382.25 950.75,379.25 950.75,379.25
             950.75,379.25 878.50,378.50 878.75,378.00
             879.00,377.50 809.75,372.25 809.75,372.50
             809.75,372.75 739.75,373.50 739.75,373.50
             739.75,373.50 739.50,366.50 739.50,366.50
             739.50,366.50 688.75,366.75 688.75,366.75
             688.75,366.75 687.75,364.00 687.75,364.00
             687.75,364.00 683.50,363.75 683.50,363.50
             683.50,363.25 688.00,358.25 688.00,358.00
             688.00,357.75 685.25,350.50 685.25,350.50
             685.25,350.50 680.50,349.00 680.50,349.00
             680.50,349.00 680.50,347.25 680.50,347.25
             680.50,347.25 692.50,346.50 692.50,346.50
             692.50,346.50 693.75,341.75 693.75,341.75
             693.75,341.75 687.25,329.75 687.25,329.75
             687.25,329.75 788.50,294.00 788.50,294.00
             788.50,294.00 868.50,269.50 868.50,269.25
             868.50,269.00 943.00,240.50 943.00,240.50
             943.00,240.50 1012.75,210.75 1012.50,210.75
             1012.25,210.75 1019.50,200.00 1019.50,200.00
             1019.50,200.00 1014.75,191.75 1014.50,191.50
             1014.25,191.25 1005.50,185.00 1005.50,185.25
             1005.50,185.50 995.00,184.25 994.75,184.00
             994.50,183.75 982.00,183.25 982.00,183.25
             982.00,183.25 969.50,182.50 969.50,182.50
             969.50,182.50 959.75,186.75 959.75,186.75
             959.75,186.75 892.00,213.50 891.75,213.50
             891.50,213.50 818.00,241.75 817.75,242.00
             817.50,242.25 754.00,265.50 753.75,265.75
             753.50,266.00 682.75,292.50 682.50,292.50
             682.25,292.50 671.00,297.50 671.00,297.25
             671.00,297.00 657.25,283.75 657.00,283.75
             656.75,283.75 632.25,279.75 632.25,279.75
             632.25,279.75 613.00,279.75 613.00,279.50
             613.00,279.25 614.75,223.00 614.75,223.00
             614.75,223.00 603.00,222.00 602.75,221.75
             602.50,221.50 601.75,250.50 601.75,250.50
             601.75,250.50 599.00,250.00 598.75,250.00
             598.50,250.00 598.75,265.00 598.75,265.00
             598.75,265.00 604.50,269.00 604.50,269.00
             604.50,269.00 605.50,279.00 605.25,279.25
             605.00,279.50 502.00,281.25 502.25,281.25
             502.50,281.25 502.25,269.00 502.00,268.50
             501.75,268.00 494.50,253.75 494.50,253.75
             494.50,253.75 491.50,246.25 491.50,246.25
             491.50,246.25 479.50,243.75 479.50,243.75
             479.50,243.75 477.50,237.50 477.25,237.25
             477.00,237.00 445.75,235.00 445.75,235.00
             445.75,235.00 437.25,239.75 437.00,239.75
             436.75,239.75 437.25,244.50 437.25,244.50
             437.25,244.50 418.75,243.75 418.75,243.75
             418.75,243.75 410.25,246.00 410.00,246.00
             409.75,246.00 410.25,278.75 410.25,278.75
             410.25,278.75 397.00,280.25 396.75,280.25
             396.50,280.25 390.00,290.50 390.00,290.50
             390.00,290.50 384.00,291.50 384.00,291.50
             384.00,291.50 383.75,294.25 383.75,294.25
             383.75,294.25 370.00,297.50 370.00,297.50
             370.00,297.50 370.75,322.00 370.75,322.00
             370.75,322.00 371.00,345.25 370.75,345.25
             370.50,345.25 373.00,356.75 373.00,356.75
             373.00,356.75 381.75,360.75 381.75,361.00
             381.75,361.25 390.75,376.50 390.75,376.25
             390.75,376.00 346.00,378.25 345.75,378.25
             345.50,378.25 297.75,377.00 297.50,377.00
             297.25,377.00 290.00,387.75 290.00,387.75
             290.00,387.75 289.75,392.75 289.50,392.75
             289.25,392.75 134.50,408.75 134.25,408.50
             134.00,408.25 138.00,452.25 138.00,452.25
             138.00,452.25 142.25,455.75 142.25,456.00
             142.25,456.25 145.25,490.50 145.25,490.75
             145.25,491.00 175.50,492.25 175.75,492.25
             176.00,492.25 182.00,509.25 182.00,509.00
             182.00,508.75 185.75,517.50 185.75,517.50
             185.75,517.50 194.50,525.00 194.50,525.00
             194.50,525.00 198.50,525.00 198.75,525.00
             199.00,525.00 199.50,530.75 199.50,531.00
             199.50,531.25 207.25,533.00 207.25,533.00
             207.25,533.00 207.75,540.00 208.00,540.00
             208.25,540.00 216.25,541.50 216.25,541.50
             216.25,541.50 217.00,548.25 217.00,548.25
             217.00,548.25 225.00,550.50 225.00,550.25
             225.00,550.00 226.00,559.00 226.00,558.75
             226.00,558.50 233.00,560.00 233.00,560.00
             233.00,560.00 235.00,567.50 235.00,567.25
             235.00,567.00 244.25,573.25 244.50,573.50
             244.75,573.75 651.75,590.25 651.50,590.00
             651.25,589.75 692.50,586.25 692.50,585.75" />
</svg>
